<svg xmlns="http://www.w3.org/2000/svg" viewBox="0 0 600 170.43"><defs><style>.a{fill:#e11f1e;}.b{fill:#231f20;}.c{fill:none;}</style></defs><title>pi-logo</title><path class="a" d="M230.86,3.6h23.3q6.4,0,9.72,4.08T265.81,19q-1.37,7.28-5.87,11.07a17.23,17.23,0,0,1-11.49,3.79h-16.6l-3.68,19.52h-6.7Zm5.66,5.53-3.62,19.22H248A10.27,10.27,0,0,0,254.88,26a11.62,11.62,0,0,0,3.94-7q0.93-4.95-1-7.28a7.53,7.53,0,0,0-6.21-2.62H236.51Z" transform="translate(-1.78 -3.02)"/><path class="a" d="M277.17,3.6h32l-1,5.53H282.82l-2.91,15.44h23.59l-1,5.53H278.87l-3.35,17.77h26.8l-1,5.54h-33.5Z" transform="translate(-1.78 -3.02)"/><path class="a" d="M320.62,3.31h24.47q5.82,0,8.9,3.79t1.81,10.49A17.38,17.38,0,0,1,350,28.07a12.45,12.45,0,0,1-6.32,2.62l7.13,22.43h-7.28l-6.42-21.55H322l-4.06,21.55h-6.7Zm5.66,5.53L323,26h17.18a8.1,8.1,0,0,0,5.34-2,10.63,10.63,0,0,0,3.25-6.41q0.77-4.08-1.12-6.41a6.23,6.23,0,0,0-5.09-2.33H326.28Z" transform="translate(-1.78 -3.02)"/><path class="a" d="M366.88,3.6h33.5l-1,5.53h-26.8l-3.07,16.31h21l-1,5.53h-21l-4.23,22.43h-6.7Z" transform="translate(-1.78 -3.02)"/><path class="a" d="M407.08,3.6h32l-1,5.53H412.73l-2.91,15.44h23.59l-1,5.53H408.78l-3.35,17.77h26.8l-1,5.54h-33.5Z" transform="translate(-1.78 -3.02)"/><path class="a" d="M454.79,8.55A23.08,23.08,0,0,1,470.1,3q8.74,0,12.76,5,4.26,5.24,3,13.4h-7q0.56-6.12-2-9.32a9.49,9.49,0,0,0-7.79-3.49A15.53,15.53,0,0,0,459,12.63q-6.23,5.24-8.26,16t2.22,16a10.45,10.45,0,0,0,8.61,3.79,14.44,14.44,0,0,0,9.63-3.2q4.84-4.08,6.27-11.65h7q-2.16,9.9-8.73,15.44-5.89,5-15.21,5-8.74,0-13.23-5.53-5.91-7.28-3.55-19.81Q446.13,15.84,454.79,8.55Z" transform="translate(-1.78 -3.02)"/><path class="a" d="M495.92,3.6h39.9l-1,5.53h-16.6l-8.34,44.27h-6.7l8.34-44.27h-16.6Z" transform="translate(-1.78 -3.02)"/><path class="b" d="M223.5,120.78H208.89l10.6-56.23H234.1Z" transform="translate(-1.78 -3.02)"/><path class="b" d="M249.83,64.55h14.39L270,94.6l17.74-30.05h14.54l-2.09,56.23H285.54l2-32.36h-0.15l-19.6,32.36H262l-6.8-32.36H255l-10.8,32.36H229.69Z" transform="translate(-1.78 -3.02)"/><path class="b" d="M316.94,64.55h22.37c12.08,0,19.38,5.59,16.95,18.49-2.5,13.27-10.76,19.09-23.51,19.09h-8.28L321,120.78H306.34Zm9.75,25.8h2.46c5.29,0,10.51,0,11.81-6.86,1.33-7.08-3.5-7.16-9.17-7.16h-2.46Z" transform="translate(-1.78 -3.02)"/><path class="b" d="M402.39,120.78H384.19l-9.72-21.63h-0.15l-4.08,21.63H355.63l10.6-56.23h21.85c11.11,0,18.54,5.29,16.28,17.3-1.46,7.76-7.05,14.47-15.3,15.88Zm-26.29-31h1.41c4.77,0,10.31-.89,11.46-7s-4-7-8.82-7h-1.41Z" transform="translate(-1.78 -3.02)"/><path class="b" d="M421,120.78H406.34l10.6-56.23h14.62Z" transform="translate(-1.78 -3.02)"/><path class="b" d="M441.09,64.55h14.62L476,98.93h0.15l6.48-34.38h14.62l-10.6,56.23H472L451.75,86.32H451.6l-6.49,34.45H430.49Z" transform="translate(-1.78 -3.02)"/><path class="b" d="M518.56,120.78H503.94l8.26-43.85H500.13l2.33-12.38h38.78L538.9,76.93H526.82Z" transform="translate(-1.78 -3.02)"/><path class="b" d="M574.67,79a12.76,12.76,0,0,0-9-3.73c-2.68,0-6.56,1.57-7.15,4.7s3.1,4.55,5.48,5.37l3.52,1.12c7.39,2.31,12.69,6.26,11,15.36-1.05,5.59-3.48,11.34-8.67,15.14a28.9,28.9,0,0,1-17,5.29,29.41,29.41,0,0,1-18.55-6.41l8.48-11.78c3,3.21,6.88,5.82,11.88,5.82,3.43,0,7.41-1.72,8.15-5.67s-4.7-5.52-7.66-6.41c-8.68-2.61-14.27-5-12.22-15.88A22.89,22.89,0,0,1,565.9,63.06a33.44,33.44,0,0,1,16.73,4.62Z" transform="translate(-1.78 -3.02)"/><path class="c" d="M106.11,81.17c3.46-20.09-8.62-30.81-31.39-30.81A95.33,95.33,0,0,0,55.42,52L44.88,113c3.83,1.07,9.15,1.34,15.84,1.34C85.37,114.39,102.46,102.33,106.11,81.17Z" transform="translate(-1.78 -3.02)"/><path d="M40.4,139a89.52,89.52,0,0,0,15.89,1.07c23.31,0,45-6.16,60.39-19.29,11.84-9.64,19.65-23.84,22.61-41,2.91-16.88-1.6-31.08-10.8-39.92-9.86-9.64-26.66-14.73-50.77-14.73-22.24,0-38.85,1.61-51,3.75L1.78,173.45H34.47ZM55.42,52a95.33,95.33,0,0,1,19.3-1.61c22.77,0,34.85,10.72,31.39,30.81-3.65,21.16-20.73,33.22-45.38,33.22-6.7,0-12-.27-15.84-1.34Z" transform="translate(-1.78 -3.02)"/><path class="b" d="M213.46,135a17,17,0,0,1,10.72-3.75q5.92,0,8.34,3.36,2.56,3.55,1.22,9.08H229q0.76-4.15-.8-6.32a5.84,5.84,0,0,0-5.06-2.37,11.5,11.5,0,0,0-7.09,2.76q-4.55,3.55-6.59,10.86T210,159.51a6.44,6.44,0,0,0,5.6,2.57,10.59,10.59,0,0,0,6.73-2.17,14.67,14.67,0,0,0,5-7.9H232a20.53,20.53,0,0,1-6.87,10.46,16.7,16.7,0,0,1-10.61,3.36q-5.92,0-8.63-3.75-3.56-4.93-1.19-13.43A25.36,25.36,0,0,1,213.46,135Z" transform="translate(-1.78 -3.02)"/><path class="b" d="M254.49,142.92l-1.21,4.34a8.78,8.78,0,0,0-2.12-.2,10.33,10.33,0,0,0-6.25,2.57,17.41,17.41,0,0,0-4.23,4.54l-3.14,11.25h-3.95l6.18-22.11h3.95l-1.54,5.53a23.47,23.47,0,0,1,2.94-2.76A14.79,14.79,0,0,1,254.49,142.92Z" transform="translate(-1.78 -3.02)"/><path class="b" d="M259.64,145.69a12.49,12.49,0,0,1,7.88-2.76,7.25,7.25,0,0,1,6.28,3q2,2.77.39,8.49h-16q-1.16,4.15.26,6.12a4.64,4.64,0,0,0,4,1.78,6.8,6.8,0,0,0,4.28-1.18,6.12,6.12,0,0,0,2.27-3.16h4.34a15.4,15.4,0,0,1-4.06,5.33,12.32,12.32,0,0,1-7.82,2.57q-4.74,0-6.87-3-2.28-3.16-.79-8.49A16.31,16.31,0,0,1,259.64,145.69Zm2.36,2.17a9.33,9.33,0,0,0-2.71,3.36h11.25a4,4,0,0,0-.59-3.55q-1-1.38-3.56-1.38A7,7,0,0,0,262,147.86Z" transform="translate(-1.78 -3.02)"/><path class="b" d="M284.68,145.09a10.91,10.91,0,0,1,6.93-2.17q4.93,0,6.5,2.17a5.07,5.07,0,0,1,.71,4.54l-3.47,12.44a3.14,3.14,0,0,0,.64,3.36h-4.74a3.05,3.05,0,0,1-.07-2.57,13.23,13.23,0,0,1-8.33,3q-3.75,0-5.17-2a4.62,4.62,0,0,1-.62-4.15,8.55,8.55,0,0,1,3-4.54,13.37,13.37,0,0,1,6.24-2.57,32.88,32.88,0,0,0,4.42-1,17.48,17.48,0,0,0,3.89-1.18,3.08,3.08,0,0,0-.41-2.76,3.49,3.49,0,0,0-3-1.18,6.8,6.8,0,0,0-4.28,1.18,7.2,7.2,0,0,0-1.79,2.17h-4.34A13.62,13.62,0,0,1,284.68,145.09Zm8.92,9.08a21.46,21.46,0,0,1-2.34.59q-3.58.79-5.46,1.18a6.9,6.9,0,0,0-2.7,1.18,4.26,4.26,0,0,0-1.59,2.17,2.63,2.63,0,0,0,.33,2.37q0.43,0.59,2.4.59a9.72,9.72,0,0,0,6.13-2.17,10.49,10.49,0,0,0,2.13-2Z" transform="translate(-1.78 -3.02)"/><path class="b" d="M310.83,135.62h3.95l-2.15,7.7h6.71l-0.88,3.16h-6.71l-3.58,12.83a2.42,2.42,0,0,0,.38,2.17,2.76,2.76,0,0,0,2.35.79,11,11,0,0,0,5.32-1.38l-1,3.75a11.75,11.75,0,0,1-5.07,1.18q-3.95,0-5.23-1.78a4.84,4.84,0,0,1-.76-4.35l3.69-13.23h-4.74l0.88-3.16h4.74Z" transform="translate(-1.78 -3.02)"/><path class="b" d="M325.06,143.32H329l-6.18,22.11h-3.95Zm3.2-11.45h3.95L330.78,137h-3.95Z" transform="translate(-1.78 -3.02)"/><path class="b" d="M333,143.32h4.34l2.2,17.57,12-17.57h4.34L340.1,165.83h-3.95Z" transform="translate(-1.78 -3.02)"/><path class="b" d="M361.52,145.69a12.49,12.49,0,0,1,7.88-2.76,7.25,7.25,0,0,1,6.28,3q2,2.77.39,8.49h-16q-1.16,4.15.26,6.12a4.64,4.64,0,0,0,4,1.78,6.8,6.8,0,0,0,4.28-1.18,6.12,6.12,0,0,0,2.27-3.16h4.34a15.4,15.4,0,0,1-4.06,5.33,12.33,12.33,0,0,1-7.82,2.57q-4.74,0-6.87-3-2.28-3.16-.79-8.49A16.3,16.3,0,0,1,361.52,145.69Zm2.36,2.17a9.33,9.33,0,0,0-2.71,3.36h11.25a4,4,0,0,0-.59-3.55q-1-1.38-3.56-1.38A7,7,0,0,0,363.87,147.86Z" transform="translate(-1.78 -3.02)"/><path class="b" d="M403.93,131.67h6.12l1.75,26.26,16.42-26.26h6.12l-9.43,33.77h-4.54l7.22-25.87-16.31,25.87h-3.16l-1.86-25.87L399,165.43h-4.54Z" transform="translate(-1.78 -3.02)"/><path class="b" d="M439.47,145.09a10.91,10.91,0,0,1,6.93-2.17q4.93,0,6.5,2.17a5.07,5.07,0,0,1,.71,4.54l-3.47,12.44a3.14,3.14,0,0,0,.64,3.36H446a3,3,0,0,1-.07-2.57,13.23,13.23,0,0,1-8.33,3q-3.75,0-5.17-2a4.62,4.62,0,0,1-.62-4.15,8.55,8.55,0,0,1,3-4.54,13.38,13.38,0,0,1,6.25-2.57,32.92,32.92,0,0,0,4.42-1,17.49,17.49,0,0,0,3.88-1.18,3.08,3.08,0,0,0-.41-2.76,3.49,3.49,0,0,0-3-1.18,6.8,6.8,0,0,0-4.28,1.18,7.21,7.21,0,0,0-1.79,2.17h-4.34A13.61,13.61,0,0,1,439.47,145.09Zm8.92,9.08a21.46,21.46,0,0,1-2.34.59q-3.58.79-5.46,1.18a6.91,6.91,0,0,0-2.7,1.18,4.26,4.26,0,0,0-1.59,2.17,2.64,2.64,0,0,0,.33,2.37q0.43,0.59,2.4.59a9.72,9.72,0,0,0,6.13-2.17,10.49,10.49,0,0,0,2.13-2Z" transform="translate(-1.78 -3.02)"/><path class="b" d="M476.21,142.92L475,147.27a8.78,8.78,0,0,0-2.11-.2,10.32,10.32,0,0,0-6.25,2.57,17.4,17.4,0,0,0-4.23,4.54l-3.14,11.25h-3.95l6.18-22.11h3.95l-1.54,5.53a23.44,23.44,0,0,1,2.94-2.76A14.79,14.79,0,0,1,476.21,142.92Z" transform="translate(-1.78 -3.02)"/><path class="b" d="M482.12,131.67h3.95l-6,21.33,12.38-9.68h4.94l-9.6,7.5,5,14.61h-4.15l-4.14-12-5.81,4.54-2.1,7.5h-3.95Z" transform="translate(-1.78 -3.02)"/><path class="b" d="M504.66,145.69a12.49,12.49,0,0,1,7.88-2.76,7.25,7.25,0,0,1,6.28,3q2,2.77.39,8.49h-16q-1.16,4.15.26,6.12a4.64,4.64,0,0,0,4,1.78,6.8,6.8,0,0,0,4.28-1.18,6.12,6.12,0,0,0,2.27-3.16h4.34a15.4,15.4,0,0,1-4.06,5.33,12.32,12.32,0,0,1-7.82,2.57q-4.74,0-6.87-3-2.28-3.16-.79-8.49A16.31,16.31,0,0,1,504.66,145.69Zm2.36,2.17a9.33,9.33,0,0,0-2.71,3.36h11.25a4,4,0,0,0-.59-3.55q-1-1.38-3.56-1.38A7,7,0,0,0,507,147.86Z" transform="translate(-1.78 -3.02)"/><path class="b" d="M531.76,135.62h3.95l-2.15,7.7h6.71l-0.88,3.16h-6.71l-3.58,12.83a2.42,2.42,0,0,0,.38,2.17,2.76,2.76,0,0,0,2.35.79,11,11,0,0,0,5.32-1.38l-1,3.75a11.75,11.75,0,0,1-5.07,1.18q-3.95,0-5.23-1.78a4.84,4.84,0,0,1-.76-4.35l3.69-13.23H524l0.88-3.16h4.74Z" transform="translate(-1.78 -3.02)"/><path class="b" d="M546,143.32h3.95l-6.18,22.11h-3.95Zm3.2-11.45h3.95L551.71,137h-3.95Z" transform="translate(-1.78 -3.02)"/><path class="b" d="M554,165.43h-3.95l6.18-22.11h3.95l-1.1,3.95q4.77-4.34,8.72-4.34t5.65,2.37A4.19,4.19,0,0,1,574,149l-4.58,16.39h-3.95l4.25-15.2a3.31,3.31,0,0,0-.36-3,3.48,3.48,0,0,0-3-1.18,7.69,7.69,0,0,0-4.5,2,12.58,12.58,0,0,0-4.73,6.32Z" transform="translate(-1.78 -3.02)"/><path class="b" d="M583.6,145.09a9.74,9.74,0,0,1,6.14-2.17,6.44,6.44,0,0,1,5,2,8.48,8.48,0,0,1,5.29-2h1.78l-1,3.75a7.86,7.86,0,0,0-5.28-.2,5.66,5.66,0,0,1,.23,4.15,10.72,10.72,0,0,1-3.77,5.73,9.87,9.87,0,0,1-6.28,2,8.26,8.26,0,0,1-3.87-1,3.11,3.11,0,0,0-1.43,1.58,1.1,1.1,0,0,0,.12,1q0.71,1,4.21,1.18,3.1,0.2,6.6.4a4.1,4.1,0,0,1,2.58,1.38,4.19,4.19,0,0,1,.53,3.75,7.47,7.47,0,0,1-2.68,3.95q-2.78,2.17-10.08,2.17-6.12,0-7.69-2.17a3.75,3.75,0,0,1-.44-3.36,4.51,4.51,0,0,1,1.65-2.37,13.31,13.31,0,0,1,2.81-1.58,6.08,6.08,0,0,1-1.05-1.18,2.88,2.88,0,0,1-.27-2.57q0.55-2,4-3.75a5.72,5.72,0,0,1-.74-5.13A10.41,10.41,0,0,1,583.6,145.09Zm-3,19.15a6.33,6.33,0,0,0-2.25,1,3.46,3.46,0,0,0-1.29,1.78,2,2,0,0,0,.29,1.78q0.86,1.19,4.8,1.18,5.33,0,7.1-1.38a3.27,3.27,0,0,0,1.23-1.58,1.53,1.53,0,0,0-.21-1.38q-0.57-.79-2.54-0.79A64.83,64.83,0,0,1,580.62,164.25Zm5.53-17a6.38,6.38,0,0,0-2.32,3.36,3.57,3.57,0,0,0,.3,3.16,2.82,2.82,0,0,0,2.43,1.18,4.77,4.77,0,0,0,3-1,6.22,6.22,0,0,0,2.12-3.36,3.76,3.76,0,0,0-.45-3.36,2.87,2.87,0,0,0-2.49-1A4.24,4.24,0,0,0,586.16,147.27Z" transform="translate(-1.78 -3.02)"/><path class="a" d="M179.61,125.54H130.56c-0.67,0-1,.14-1.08.89a15.84,15.84,0,0,1-.3,1.85l-0.11.68q-1.67,9.89-3.33,19.79c-1.16,6.86-2.33,13.71-3.47,20.57-0.23,1.38-.43,2.76-0.62,4.15h50.55q1.34-7.76,2.68-15.52,1.94-11.14,3.88-22.28c0.58-3.31,1.14-6.63,1.73-10C180.14,125.59,179.88,125.54,179.61,125.54Z" transform="translate(-1.78 -3.02)"/><path class="a" d="M144.82,35.22c10.82,11.08,15.27,27.75,12.13,46a81.06,81.06,0,0,1-10.2,28.14H181L203.42,3.47h-54Z" transform="translate(-1.78 -3.02)"/></svg>